<svg width="430" height="138" viewBox="0 0 430 138" fill="none" xmlns="http://www.w3.org/2000/svg">
<rect width="430" height="138" fill="white"/>
<rect x="21" y="14" width="389" height="45" rx="3" fill="#E7E7E7" fill-opacity="0.2"/>
<rect x="21.5" y="14.5" width="388" height="44" rx="2.5" stroke="black" stroke-opacity="0.29"/>
<path d="M85.708 41H80.131V31.692H85.695V32.55H80.482L81.067 32.043V35.904H85.266V36.749H81.067V40.649L80.482 40.142H85.708V41ZM88.3105 41H87.4135V34.708H88.1935L88.3235 35.8C88.5315 35.4013 88.8262 35.0937 89.2075 34.877C89.5975 34.6517 90.0222 34.539 90.4815 34.539C91.3482 34.539 91.9722 34.7773 92.3535 35.254C92.7349 35.7307 92.9255 36.3633 92.9255 37.152V41H92.0285V37.347C92.0285 36.6103 91.8725 36.0947 91.5605 35.8C91.2572 35.5053 90.8455 35.358 90.3255 35.358C89.6842 35.358 89.1859 35.5747 88.8305 36.008C88.4839 36.4327 88.3105 37.0003 88.3105 37.711V41ZM94.0113 34.708H97.4173V35.462H94.0113V34.708ZM96.1563 41H95.2723V32.719H96.1563V41ZM101.161 41.156C100.554 41.156 100.017 41.0173 99.5489 40.74C99.0896 40.4627 98.7299 40.077 98.4699 39.583C98.2099 39.089 98.0799 38.5127 98.0799 37.854C98.0799 37.204 98.2056 36.632 98.4569 36.138C98.7169 35.6353 99.0723 35.2453 99.5229 34.968C99.9736 34.682 100.498 34.539 101.096 34.539C101.668 34.539 102.166 34.6647 102.591 34.916C103.024 35.1673 103.358 35.5183 103.592 35.969C103.835 36.411 103.956 36.931 103.956 37.529V37.971H98.5739L98.5999 37.321H103.059C103.059 36.7143 102.877 36.229 102.513 35.865C102.158 35.4923 101.685 35.306 101.096 35.306C100.663 35.306 100.281 35.4057 99.9519 35.605C99.6313 35.8043 99.3843 36.0903 99.2109 36.463C99.0376 36.827 98.9509 37.2603 98.9509 37.763C98.9509 38.595 99.1416 39.2407 99.5229 39.7C99.9129 40.1593 100.463 40.389 101.174 40.389C101.685 40.389 102.106 40.2807 102.435 40.064C102.764 39.8473 102.985 39.531 103.098 39.115H103.956C103.791 39.7737 103.471 40.2807 102.994 40.636C102.517 40.9827 101.906 41.156 101.161 41.156ZM108.679 34.63V35.436H108.185C107.604 35.436 107.141 35.6137 106.794 35.969C106.456 36.3243 106.287 36.8053 106.287 37.412V41H105.39V34.708H106.235L106.313 35.943H106.222C106.309 35.5357 106.521 35.2063 106.859 34.955C107.197 34.695 107.609 34.565 108.094 34.565C108.189 34.565 108.285 34.5693 108.38 34.578C108.475 34.5867 108.575 34.604 108.679 34.63ZM113.607 34.708L115.973 41.13L115.31 41.65L112.658 34.708H113.607ZM112.84 43.743V43.002H113.529C113.711 43.002 113.889 42.9847 114.062 42.95C114.244 42.924 114.409 42.8503 114.556 42.729C114.712 42.6077 114.838 42.404 114.933 42.118L117.624 34.708H118.547L115.661 42.443C115.479 42.937 115.232 43.2923 114.92 43.509C114.617 43.7257 114.24 43.834 113.789 43.834C113.607 43.834 113.438 43.8253 113.282 43.808C113.126 43.7993 112.979 43.7777 112.84 43.743ZM118.926 37.854C118.926 37.204 119.064 36.632 119.342 36.138C119.619 35.644 120 35.254 120.486 34.968C120.971 34.682 121.517 34.539 122.124 34.539C122.739 34.539 123.285 34.682 123.762 34.968C124.247 35.254 124.628 35.644 124.906 36.138C125.183 36.632 125.322 37.204 125.322 37.854C125.322 38.4867 125.183 39.0543 124.906 39.557C124.628 40.051 124.247 40.441 123.762 40.727C123.285 41.013 122.739 41.156 122.124 41.156C121.517 41.156 120.971 41.013 120.486 40.727C120 40.441 119.619 40.051 119.342 39.557C119.064 39.0543 118.926 38.4867 118.926 37.854ZM119.836 37.841C119.836 38.335 119.931 38.7727 120.122 39.154C120.321 39.5267 120.59 39.8213 120.928 40.038C121.274 40.246 121.673 40.35 122.124 40.35C122.574 40.35 122.969 40.246 123.307 40.038C123.653 39.8213 123.922 39.5267 124.113 39.154C124.312 38.7727 124.412 38.335 124.412 37.841C124.412 37.3557 124.312 36.9267 124.113 36.554C123.922 36.1813 123.653 35.8867 123.307 35.67C122.969 35.4533 122.574 35.345 122.124 35.345C121.673 35.345 121.274 35.4533 120.928 35.67C120.59 35.8867 120.321 36.1813 120.122 36.554C119.931 36.9267 119.836 37.3557 119.836 37.841ZM131.024 34.708H131.921V41H131.141L131.024 39.934C130.851 40.298 130.56 40.5927 130.153 40.818C129.754 41.0433 129.308 41.156 128.814 41.156C128.077 41.156 127.51 40.922 127.111 40.454C126.721 39.986 126.526 39.3707 126.526 38.608V34.695H127.436V38.322C127.436 39.0673 127.588 39.5917 127.891 39.895C128.203 40.1983 128.606 40.35 129.1 40.35C129.707 40.35 130.179 40.155 130.517 39.765C130.855 39.3663 131.024 38.7943 131.024 38.049V34.708ZM137.079 34.63V35.436H136.585C136.004 35.436 135.54 35.6137 135.194 35.969C134.856 36.3243 134.687 36.8053 134.687 37.412V41H133.79V34.708H134.635L134.713 35.943H134.622C134.708 35.5357 134.921 35.2063 135.259 34.955C135.597 34.695 136.008 34.565 136.494 34.565C136.589 34.565 136.684 34.5693 136.78 34.578C136.875 34.5867 136.975 34.604 137.079 34.63ZM143.202 41L141.122 34.708H142.045L143.28 38.504C143.35 38.712 143.415 38.9243 143.475 39.141C143.545 39.3577 143.61 39.596 143.67 39.856C143.705 39.6913 143.748 39.518 143.8 39.336C143.852 39.1453 143.9 38.9763 143.943 38.829C143.995 38.6817 144.03 38.5733 144.047 38.504L145.295 34.708H146.218L147.453 38.504C147.479 38.5907 147.51 38.6903 147.544 38.803C147.579 38.907 147.614 39.0153 147.648 39.128C147.683 39.2407 147.713 39.362 147.739 39.492C147.774 39.6133 147.809 39.7347 147.843 39.856C147.887 39.674 147.921 39.5267 147.947 39.414C147.973 39.2927 148.008 39.167 148.051 39.037C148.095 38.907 148.151 38.7293 148.22 38.504L149.468 34.708H150.404L148.272 41H147.401L146.101 37.048C146.023 36.814 145.954 36.5973 145.893 36.398C145.841 36.1987 145.798 36.0037 145.763 35.813C145.72 35.9863 145.668 36.1727 145.607 36.372C145.555 36.5627 145.486 36.788 145.399 37.048L144.099 41H143.202ZM150.804 37.854C150.804 37.204 150.942 36.632 151.22 36.138C151.497 35.644 151.878 35.254 152.364 34.968C152.849 34.682 153.395 34.539 154.002 34.539C154.617 34.539 155.163 34.682 155.64 34.968C156.125 35.254 156.506 35.644 156.784 36.138C157.061 36.632 157.2 37.204 157.2 37.854C157.2 38.4867 157.061 39.0543 156.784 39.557C156.506 40.051 156.125 40.441 155.64 40.727C155.163 41.013 154.617 41.156 154.002 41.156C153.395 41.156 152.849 41.013 152.364 40.727C151.878 40.441 151.497 40.051 151.22 39.557C150.942 39.0543 150.804 38.4867 150.804 37.854ZM151.714 37.841C151.714 38.335 151.809 38.7727 152 39.154C152.199 39.5267 152.468 39.8213 152.806 40.038C153.152 40.246 153.551 40.35 154.002 40.35C154.452 40.35 154.847 40.246 155.185 40.038C155.531 39.8213 155.8 39.5267 155.991 39.154C156.19 38.7727 156.29 38.335 156.29 37.841C156.29 37.3557 156.19 36.9267 155.991 36.554C155.8 36.1813 155.531 35.8867 155.185 35.67C154.847 35.4533 154.452 35.345 154.002 35.345C153.551 35.345 153.152 35.4533 152.806 35.67C152.468 35.8867 152.199 36.1813 152 36.554C151.809 36.9267 151.714 37.3557 151.714 37.841ZM161.923 34.63V35.436H161.429C160.849 35.436 160.385 35.6137 160.038 35.969C159.7 36.3243 159.531 36.8053 159.531 37.412V41H158.634V34.708H159.479L159.557 35.943H159.466C159.553 35.5357 159.765 35.2063 160.103 34.955C160.441 34.695 160.853 34.565 161.338 34.565C161.434 34.565 161.529 34.5693 161.624 34.578C161.72 34.5867 161.819 34.604 161.923 34.63ZM164.052 41H163.155V31.523H164.052V37.958L167.172 34.708H168.303L165.885 37.217L168.316 41H167.276L165.274 37.854L164.052 39.115V41ZM175.632 41.156C175.025 41.156 174.488 41.0173 174.02 40.74C173.56 40.4627 173.201 40.077 172.941 39.583C172.681 39.089 172.551 38.5127 172.551 37.854C172.551 37.204 172.676 36.632 172.928 36.138C173.188 35.6353 173.543 35.2453 173.994 34.968C174.444 34.682 174.969 34.539 175.567 34.539C176.139 34.539 176.637 34.6647 177.062 34.916C177.495 35.1673 177.829 35.5183 178.063 35.969C178.305 36.411 178.427 36.931 178.427 37.529V37.971H173.045L173.071 37.321H177.53C177.53 36.7143 177.348 36.229 176.984 35.865C176.628 35.4923 176.156 35.306 175.567 35.306C175.133 35.306 174.752 35.4057 174.423 35.605C174.102 35.8043 173.855 36.0903 173.682 36.463C173.508 36.827 173.422 37.2603 173.422 37.763C173.422 38.595 173.612 39.2407 173.994 39.7C174.384 40.1593 174.934 40.389 175.645 40.389C176.156 40.389 176.576 40.2807 176.906 40.064C177.235 39.8473 177.456 39.531 177.569 39.115H178.427C178.262 39.7737 177.941 40.2807 177.465 40.636C176.988 40.9827 176.377 41.156 175.632 41.156ZM180.758 41H179.861V34.708H180.641L180.771 35.891L180.641 35.852C180.771 35.4533 181.013 35.137 181.369 34.903C181.733 34.6603 182.157 34.539 182.643 34.539C183.206 34.539 183.674 34.695 184.047 35.007C184.428 35.3103 184.671 35.7263 184.775 36.255H184.58C184.666 35.7263 184.9 35.3103 185.282 35.007C185.672 34.695 186.157 34.539 186.738 34.539C187.414 34.539 187.96 34.747 188.376 35.163C188.792 35.579 189 36.151 189 36.879V41H188.129V37.061C188.129 36.5237 187.99 36.1033 187.713 35.8C187.435 35.4967 187.054 35.345 186.569 35.345C186.222 35.345 185.923 35.4273 185.672 35.592C185.42 35.748 185.225 35.9603 185.087 36.229C184.957 36.4977 184.892 36.7923 184.892 37.113V41H184.008V37.048C184.008 36.5107 183.865 36.0947 183.579 35.8C183.301 35.5053 182.924 35.358 182.448 35.358C182.101 35.358 181.798 35.436 181.538 35.592C181.286 35.748 181.091 35.9603 180.953 36.229C180.823 36.489 180.758 36.7793 180.758 37.1V41ZM192.611 41.156C191.944 41.156 191.419 40.9827 191.038 40.636C190.665 40.2893 190.479 39.843 190.479 39.297C190.479 38.7163 190.687 38.2527 191.103 37.906C191.519 37.5593 192.095 37.3557 192.832 37.295L194.912 37.126V36.918C194.912 36.502 194.838 36.177 194.691 35.943C194.544 35.7003 194.344 35.5313 194.093 35.436C193.842 35.3407 193.56 35.293 193.248 35.293C192.693 35.293 192.264 35.41 191.961 35.644C191.658 35.878 191.506 36.2073 191.506 36.632H190.687C190.687 36.2073 190.795 35.839 191.012 35.527C191.229 35.215 191.532 34.9723 191.922 34.799C192.312 34.6257 192.763 34.539 193.274 34.539C193.768 34.539 194.201 34.6257 194.574 34.799C194.947 34.9637 195.241 35.2237 195.458 35.579C195.683 35.9257 195.796 36.3763 195.796 36.931V41H195.042L194.925 39.895C194.734 40.2937 194.431 40.6057 194.015 40.831C193.608 41.0477 193.14 41.156 192.611 41.156ZM192.819 40.428C193.486 40.428 194.002 40.2157 194.366 39.791C194.73 39.3663 194.912 38.816 194.912 38.14V37.802L193.053 37.945C192.464 37.997 192.039 38.1443 191.779 38.387C191.519 38.6297 191.389 38.9243 191.389 39.271C191.389 39.6523 191.519 39.9427 191.779 40.142C192.039 40.3327 192.386 40.428 192.819 40.428ZM197.596 41V34.708H198.493V41H197.596ZM198.038 32.979C197.856 32.979 197.7 32.914 197.57 32.784C197.44 32.654 197.375 32.498 197.375 32.316C197.375 32.134 197.44 31.978 197.57 31.848C197.7 31.7093 197.856 31.64 198.038 31.64C198.22 31.64 198.376 31.7093 198.506 31.848C198.645 31.978 198.714 32.134 198.714 32.316C198.714 32.498 198.645 32.654 198.506 32.784C198.376 32.914 198.22 32.979 198.038 32.979ZM201.3 41H200.403V31.523H201.3V41ZM206.111 34.708H209.517V35.462H206.111V34.708ZM208.256 41H207.372V32.719H208.256V41ZM210.18 37.854C210.18 37.204 210.318 36.632 210.596 36.138C210.873 35.644 211.254 35.254 211.74 34.968C212.225 34.682 212.771 34.539 213.378 34.539C213.993 34.539 214.539 34.682 215.016 34.968C215.501 35.254 215.882 35.644 216.16 36.138C216.437 36.632 216.576 37.204 216.576 37.854C216.576 38.4867 216.437 39.0543 216.16 39.557C215.882 40.051 215.501 40.441 215.016 40.727C214.539 41.013 213.993 41.156 213.378 41.156C212.771 41.156 212.225 41.013 211.74 40.727C211.254 40.441 210.873 40.051 210.596 39.557C210.318 39.0543 210.18 38.4867 210.18 37.854ZM211.09 37.841C211.09 38.335 211.185 38.7727 211.376 39.154C211.575 39.5267 211.844 39.8213 212.182 40.038C212.528 40.246 212.927 40.35 213.378 40.35C213.828 40.35 214.223 40.246 214.561 40.038C214.907 39.8213 215.176 39.5267 215.367 39.154C215.566 38.7727 215.666 38.335 215.666 37.841C215.666 37.3557 215.566 36.9267 215.367 36.554C215.176 36.1813 214.907 35.8867 214.561 35.67C214.223 35.4533 213.828 35.345 213.378 35.345C212.927 35.345 212.528 35.4533 212.182 35.67C211.844 35.8867 211.575 36.1813 211.376 36.554C211.185 36.9267 211.09 37.3557 211.09 37.841ZM221.174 37.867C221.174 37.2083 221.299 36.632 221.551 36.138C221.811 35.6353 222.166 35.2453 222.617 34.968C223.076 34.682 223.609 34.539 224.216 34.539C224.944 34.539 225.555 34.734 226.049 35.124C226.551 35.514 226.863 36.034 226.985 36.684H226.088C225.966 36.2507 225.737 35.917 225.399 35.683C225.061 35.449 224.671 35.332 224.229 35.332C223.813 35.332 223.44 35.436 223.111 35.644C222.781 35.852 222.521 36.1467 222.331 36.528C222.149 36.9007 222.058 37.3427 222.058 37.854C222.058 38.3567 222.144 38.7943 222.318 39.167C222.491 39.5397 222.734 39.83 223.046 40.038C223.366 40.246 223.739 40.35 224.164 40.35C224.64 40.35 225.052 40.233 225.399 39.999C225.745 39.7563 225.979 39.4313 226.101 39.024H227.011C226.915 39.4487 226.733 39.8213 226.465 40.142C226.196 40.4627 225.862 40.714 225.464 40.896C225.074 41.0693 224.64 41.156 224.164 41.156C223.566 41.156 223.041 41.0217 222.591 40.753C222.149 40.4757 221.802 40.09 221.551 39.596C221.299 39.102 221.174 38.5257 221.174 37.867ZM227.928 37.854C227.928 37.204 228.066 36.632 228.344 36.138C228.621 35.644 229.002 35.254 229.488 34.968C229.973 34.682 230.519 34.539 231.126 34.539C231.741 34.539 232.287 34.682 232.764 34.968C233.249 35.254 233.63 35.644 233.908 36.138C234.185 36.632 234.324 37.204 234.324 37.854C234.324 38.4867 234.185 39.0543 233.908 39.557C233.63 40.051 233.249 40.441 232.764 40.727C232.287 41.013 231.741 41.156 231.126 41.156C230.519 41.156 229.973 41.013 229.488 40.727C229.002 40.441 228.621 40.051 228.344 39.557C228.066 39.0543 227.928 38.4867 227.928 37.854ZM228.838 37.841C228.838 38.335 228.933 38.7727 229.124 39.154C229.323 39.5267 229.592 39.8213 229.93 40.038C230.276 40.246 230.675 40.35 231.126 40.35C231.576 40.35 231.971 40.246 232.309 40.038C232.655 39.8213 232.924 39.5267 233.115 39.154C233.314 38.7727 233.414 38.335 233.414 37.841C233.414 37.3557 233.314 36.9267 233.115 36.554C232.924 36.1813 232.655 35.8867 232.309 35.67C231.971 35.4533 231.576 35.345 231.126 35.345C230.675 35.345 230.276 35.4533 229.93 35.67C229.592 35.8867 229.323 36.1813 229.124 36.554C228.933 36.9267 228.838 37.3557 228.838 37.841ZM236.655 41H235.758V34.708H236.538L236.668 35.8C236.876 35.4013 237.171 35.0937 237.552 34.877C237.942 34.6517 238.367 34.539 238.826 34.539C239.693 34.539 240.317 34.7773 240.698 35.254C241.08 35.7307 241.27 36.3633 241.27 37.152V41H240.373V37.347C240.373 36.6103 240.217 36.0947 239.905 35.8C239.602 35.5053 239.19 35.358 238.67 35.358C238.029 35.358 237.531 35.5747 237.175 36.008C236.829 36.4327 236.655 37.0003 236.655 37.711V41ZM242.356 34.708H248.102V35.462H242.356V34.708ZM245.723 31.575V32.355C245.662 32.355 245.584 32.355 245.489 32.355C245.394 32.355 245.29 32.355 245.177 32.355C244.796 32.355 244.54 32.4503 244.41 32.641C244.28 32.8317 244.215 33.1133 244.215 33.486V41H243.318V33.486C243.318 33.018 243.396 32.641 243.552 32.355C243.708 32.0603 243.916 31.848 244.176 31.718C244.436 31.588 244.718 31.523 245.021 31.523C245.134 31.523 245.251 31.5273 245.372 31.536C245.502 31.5447 245.619 31.5577 245.723 31.575ZM247.205 41V34.708H248.102V41H247.205ZM247.647 32.914C247.465 32.914 247.313 32.8533 247.192 32.732C247.079 32.6107 247.023 32.4633 247.023 32.29C247.023 32.108 247.079 31.9563 247.192 31.835C247.313 31.7137 247.465 31.653 247.647 31.653C247.829 31.653 247.976 31.7137 248.089 31.835C248.21 31.9563 248.271 32.108 248.271 32.29C248.271 32.4633 248.21 32.6107 248.089 32.732C247.976 32.8533 247.829 32.914 247.647 32.914ZM253.228 34.63V35.436H252.734C252.153 35.436 251.69 35.6137 251.343 35.969C251.005 36.3243 250.836 36.8053 250.836 37.412V41H249.939V34.708H250.784L250.862 35.943H250.771C250.858 35.5357 251.07 35.2063 251.408 34.955C251.746 34.695 252.158 34.565 252.643 34.565C252.738 34.565 252.834 34.5693 252.929 34.578C253.024 34.5867 253.124 34.604 253.228 34.63ZM255.317 41H254.42V34.708H255.2L255.33 35.891L255.2 35.852C255.33 35.4533 255.573 35.137 255.928 34.903C256.292 34.6603 256.717 34.539 257.202 34.539C257.766 34.539 258.234 34.695 258.606 35.007C258.988 35.3103 259.23 35.7263 259.334 36.255H259.139C259.226 35.7263 259.46 35.3103 259.841 35.007C260.231 34.695 260.717 34.539 261.297 34.539C261.973 34.539 262.519 34.747 262.935 35.163C263.351 35.579 263.559 36.151 263.559 36.879V41H262.688V37.061C262.688 36.5237 262.55 36.1033 262.272 35.8C261.995 35.4967 261.614 35.345 261.128 35.345C260.782 35.345 260.483 35.4273 260.231 35.592C259.98 35.748 259.785 35.9603 259.646 36.229C259.516 36.4977 259.451 36.7923 259.451 37.113V41H258.567V37.048C258.567 36.5107 258.424 36.0947 258.138 35.8C257.861 35.5053 257.484 35.358 257.007 35.358C256.661 35.358 256.357 35.436 256.097 35.592C255.846 35.748 255.651 35.9603 255.512 36.229C255.382 36.489 255.317 36.7793 255.317 37.1V41ZM269.099 34.708L271.465 41.13L270.802 41.65L268.15 34.708H269.099ZM268.332 43.743V43.002H269.021C269.203 43.002 269.381 42.9847 269.554 42.95C269.736 42.924 269.901 42.8503 270.048 42.729C270.204 42.6077 270.33 42.404 270.425 42.118L273.116 34.708H274.039L271.153 42.443C270.971 42.937 270.724 43.2923 270.412 43.509C270.109 43.7257 269.732 43.834 269.281 43.834C269.099 43.834 268.93 43.8253 268.774 43.808C268.618 43.7993 268.471 43.7777 268.332 43.743ZM274.418 37.854C274.418 37.204 274.556 36.632 274.834 36.138C275.111 35.644 275.492 35.254 275.978 34.968C276.463 34.682 277.009 34.539 277.616 34.539C278.231 34.539 278.777 34.682 279.254 34.968C279.739 35.254 280.12 35.644 280.398 36.138C280.675 36.632 280.814 37.204 280.814 37.854C280.814 38.4867 280.675 39.0543 280.398 39.557C280.12 40.051 279.739 40.441 279.254 40.727C278.777 41.013 278.231 41.156 277.616 41.156C277.009 41.156 276.463 41.013 275.978 40.727C275.492 40.441 275.111 40.051 274.834 39.557C274.556 39.0543 274.418 38.4867 274.418 37.854ZM275.328 37.841C275.328 38.335 275.423 38.7727 275.614 39.154C275.813 39.5267 276.082 39.8213 276.42 40.038C276.766 40.246 277.165 40.35 277.616 40.35C278.066 40.35 278.461 40.246 278.799 40.038C279.145 39.8213 279.414 39.5267 279.605 39.154C279.804 38.7727 279.904 38.335 279.904 37.841C279.904 37.3557 279.804 36.9267 279.605 36.554C279.414 36.1813 279.145 35.8867 278.799 35.67C278.461 35.4533 278.066 35.345 277.616 35.345C277.165 35.345 276.766 35.4533 276.42 35.67C276.082 35.8867 275.813 36.1813 275.614 36.554C275.423 36.9267 275.328 37.3557 275.328 37.841ZM286.516 34.708H287.413V41H286.633L286.516 39.934C286.343 40.298 286.052 40.5927 285.645 40.818C285.246 41.0433 284.8 41.156 284.306 41.156C283.569 41.156 283.002 40.922 282.603 40.454C282.213 39.986 282.018 39.3707 282.018 38.608V34.695H282.928V38.322C282.928 39.0673 283.08 39.5917 283.383 39.895C283.695 40.1983 284.098 40.35 284.592 40.35C285.199 40.35 285.671 40.155 286.009 39.765C286.347 39.3663 286.516 38.7943 286.516 38.049V34.708ZM292.571 34.63V35.436H292.077C291.496 35.436 291.032 35.6137 290.686 35.969C290.348 36.3243 290.179 36.8053 290.179 37.412V41H289.282V34.708H290.127L290.205 35.943H290.114C290.2 35.5357 290.413 35.2063 290.751 34.955C291.089 34.695 291.5 34.565 291.986 34.565C292.081 34.565 292.176 34.5693 292.272 34.578C292.367 34.5867 292.467 34.604 292.571 34.63ZM299.176 41.156C298.508 41.156 297.984 40.9827 297.603 40.636C297.23 40.2893 297.044 39.843 297.044 39.297C297.044 38.7163 297.252 38.2527 297.668 37.906C298.084 37.5593 298.66 37.3557 299.397 37.295L301.477 37.126V36.918C301.477 36.502 301.403 36.177 301.256 35.943C301.108 35.7003 300.909 35.5313 300.658 35.436C300.406 35.3407 300.125 35.293 299.813 35.293C299.258 35.293 298.829 35.41 298.526 35.644C298.222 35.878 298.071 36.2073 298.071 36.632H297.252C297.252 36.2073 297.36 35.839 297.577 35.527C297.793 35.215 298.097 34.9723 298.487 34.799C298.877 34.6257 299.327 34.539 299.839 34.539C300.333 34.539 300.766 34.6257 301.139 34.799C301.511 34.9637 301.806 35.2237 302.023 35.579C302.248 35.9257 302.361 36.3763 302.361 36.931V41H301.607L301.49 39.895C301.299 40.2937 300.996 40.6057 300.58 40.831C300.172 41.0477 299.704 41.156 299.176 41.156ZM299.384 40.428C300.051 40.428 300.567 40.2157 300.931 39.791C301.295 39.3663 301.477 38.816 301.477 38.14V37.802L299.618 37.945C299.028 37.997 298.604 38.1443 298.344 38.387C298.084 38.6297 297.954 38.9243 297.954 39.271C297.954 39.6523 298.084 39.9427 298.344 40.142C298.604 40.3327 298.95 40.428 299.384 40.428ZM303.344 34.708H306.75V35.462H303.344V34.708ZM305.489 41H304.605V32.719H305.489V41ZM307.267 34.708H310.673V35.462H307.267V34.708ZM309.412 41H308.528V32.719H309.412V41ZM314.417 41.156C313.81 41.156 313.273 41.0173 312.805 40.74C312.345 40.4627 311.986 40.077 311.726 39.583C311.466 39.089 311.336 38.5127 311.336 37.854C311.336 37.204 311.461 36.632 311.713 36.138C311.973 35.6353 312.328 35.2453 312.779 34.968C313.229 34.682 313.754 34.539 314.352 34.539C314.924 34.539 315.422 34.6647 315.847 34.916C316.28 35.1673 316.614 35.5183 316.848 35.969C317.09 36.411 317.212 36.931 317.212 37.529V37.971H311.83L311.856 37.321H316.315C316.315 36.7143 316.133 36.229 315.769 35.865C315.413 35.4923 314.941 35.306 314.352 35.306C313.918 35.306 313.537 35.4057 313.208 35.605C312.887 35.8043 312.64 36.0903 312.467 36.463C312.293 36.827 312.207 37.2603 312.207 37.763C312.207 38.595 312.397 39.2407 312.779 39.7C313.169 40.1593 313.719 40.389 314.43 40.389C314.941 40.389 315.361 40.2807 315.691 40.064C316.02 39.8473 316.241 39.531 316.354 39.115H317.212C317.047 39.7737 316.726 40.2807 316.25 40.636C315.773 40.9827 315.162 41.156 314.417 41.156ZM319.543 41H318.646V34.708H319.426L319.556 35.8C319.764 35.4013 320.059 35.0937 320.44 34.877C320.83 34.6517 321.255 34.539 321.714 34.539C322.581 34.539 323.205 34.7773 323.586 35.254C323.967 35.7307 324.158 36.3633 324.158 37.152V41H323.261V37.347C323.261 36.6103 323.105 36.0947 322.793 35.8C322.49 35.5053 322.078 35.358 321.558 35.358C320.917 35.358 320.418 35.5747 320.063 36.008C319.716 36.4327 319.543 37.0003 319.543 37.711V41ZM328.416 41.156C327.809 41.156 327.289 41.013 326.856 40.727C326.422 40.441 326.089 40.051 325.855 39.557C325.621 39.0543 325.504 38.491 325.504 37.867C325.504 37.2343 325.621 36.6667 325.855 36.164C326.089 35.6613 326.422 35.267 326.856 34.981C327.298 34.6863 327.831 34.539 328.455 34.539C328.975 34.539 329.434 34.6517 329.833 34.877C330.24 35.1023 330.552 35.4447 330.769 35.904V31.523H331.666V41H330.886L330.795 39.713C330.569 40.1983 330.249 40.5623 329.833 40.805C329.417 41.039 328.944 41.156 328.416 41.156ZM328.572 40.337C329.04 40.337 329.434 40.233 329.755 40.025C330.075 39.8083 330.322 39.5137 330.496 39.141C330.669 38.7597 330.756 38.3263 330.756 37.841C330.756 37.3557 330.669 36.9267 330.496 36.554C330.322 36.1813 330.075 35.8867 329.755 35.67C329.434 35.4533 329.04 35.345 328.572 35.345C328.121 35.345 327.731 35.4533 327.402 35.67C327.081 35.8867 326.834 36.1813 326.661 36.554C326.496 36.9267 326.414 37.3557 326.414 37.841C326.414 38.3263 326.496 38.7597 326.661 39.141C326.834 39.5137 327.081 39.8083 327.402 40.025C327.731 40.233 328.121 40.337 328.572 40.337ZM335.345 41.156C334.677 41.156 334.153 40.9827 333.772 40.636C333.399 40.2893 333.213 39.843 333.213 39.297C333.213 38.7163 333.421 38.2527 333.837 37.906C334.253 37.5593 334.829 37.3557 335.566 37.295L337.646 37.126V36.918C337.646 36.502 337.572 36.177 337.425 35.943C337.277 35.7003 337.078 35.5313 336.827 35.436C336.575 35.3407 336.294 35.293 335.982 35.293C335.427 35.293 334.998 35.41 334.695 35.644C334.391 35.878 334.24 36.2073 334.24 36.632H333.421C333.421 36.2073 333.529 35.839 333.746 35.527C333.962 35.215 334.266 34.9723 334.656 34.799C335.046 34.6257 335.496 34.539 336.008 34.539C336.502 34.539 336.935 34.6257 337.308 34.799C337.68 34.9637 337.975 35.2237 338.192 35.579C338.417 35.9257 338.53 36.3763 338.53 36.931V41H337.776L337.659 39.895C337.468 40.2937 337.165 40.6057 336.749 40.831C336.341 41.0477 335.873 41.156 335.345 41.156ZM335.553 40.428C336.22 40.428 336.736 40.2157 337.1 39.791C337.464 39.3663 337.646 38.816 337.646 38.14V37.802L335.787 37.945C335.197 37.997 334.773 38.1443 334.513 38.387C334.253 38.6297 334.123 38.9243 334.123 39.271C334.123 39.6523 334.253 39.9427 334.513 40.142C334.773 40.3327 335.119 40.428 335.553 40.428ZM341.227 41H340.33V34.708H341.11L341.24 35.8C341.448 35.4013 341.742 35.0937 342.124 34.877C342.514 34.6517 342.938 34.539 343.398 34.539C344.264 34.539 344.888 34.7773 345.27 35.254C345.651 35.7307 345.842 36.3633 345.842 37.152V41H344.945V37.347C344.945 36.6103 344.789 36.0947 344.477 35.8C344.173 35.5053 343.762 35.358 343.242 35.358C342.6 35.358 342.102 35.5747 341.747 36.008C341.4 36.4327 341.227 37.0003 341.227 37.711V41ZM347.187 37.867C347.187 37.2083 347.313 36.632 347.564 36.138C347.824 35.6353 348.18 35.2453 348.63 34.968C349.09 34.682 349.623 34.539 350.229 34.539C350.957 34.539 351.568 34.734 352.062 35.124C352.565 35.514 352.877 36.034 352.998 36.684H352.101C351.98 36.2507 351.75 35.917 351.412 35.683C351.074 35.449 350.684 35.332 350.242 35.332C349.826 35.332 349.454 35.436 349.124 35.644C348.795 35.852 348.535 36.1467 348.344 36.528C348.162 36.9007 348.071 37.3427 348.071 37.854C348.071 38.3567 348.158 38.7943 348.331 39.167C348.505 39.5397 348.747 39.83 349.059 40.038C349.38 40.246 349.753 40.35 350.177 40.35C350.654 40.35 351.066 40.233 351.412 39.999C351.759 39.7563 351.993 39.4313 352.114 39.024H353.024C352.929 39.4487 352.747 39.8213 352.478 40.142C352.21 40.4627 351.876 40.714 351.477 40.896C351.087 41.0693 350.654 41.156 350.177 41.156C349.579 41.156 349.055 41.0217 348.604 40.753C348.162 40.4757 347.816 40.09 347.564 39.596C347.313 39.102 347.187 38.5257 347.187 37.867ZM357.022 41.156C356.416 41.156 355.878 41.0173 355.41 40.74C354.951 40.4627 354.591 40.077 354.331 39.583C354.071 39.089 353.941 38.5127 353.941 37.854C353.941 37.204 354.067 36.632 354.318 36.138C354.578 35.6353 354.934 35.2453 355.384 34.968C355.835 34.682 356.359 34.539 356.957 34.539C357.529 34.539 358.028 34.6647 358.452 34.916C358.886 35.1673 359.219 35.5183 359.453 35.969C359.696 36.411 359.817 36.931 359.817 37.529V37.971H354.435L354.461 37.321H358.92C358.92 36.7143 358.738 36.229 358.374 35.865C358.019 35.4923 357.547 35.306 356.957 35.306C356.524 35.306 356.143 35.4057 355.813 35.605C355.493 35.8043 355.246 36.0903 355.072 36.463C354.899 36.827 354.812 37.2603 354.812 37.763C354.812 38.595 355.003 39.2407 355.384 39.7C355.774 40.1593 356.325 40.389 357.035 40.389C357.547 40.389 357.967 40.2807 358.296 40.064C358.626 39.8473 358.847 39.531 358.959 39.115H359.817C359.653 39.7737 359.332 40.2807 358.855 40.636C358.379 40.9827 357.768 41.156 357.022 41.156Z" fill="black" fill-opacity="0.4"/>
<path d="M45.3709 45.5C44.8357 45.5 44.3714 45.2986 43.9781 44.8958C43.585 44.4928 43.3885 44.0171 43.3885 43.4686V28.0314C43.3885 27.4829 43.585 27.0072 43.9781 26.6042C44.3714 26.2014 44.8357 26 45.3709 26H65.1938C65.7291 26 66.1933 26.2014 66.5866 26.6042C66.9797 27.0072 67.1763 27.4829 67.1763 28.0314V43.4686C67.1763 44.0171 66.9797 44.4928 66.5866 44.8958C66.1933 45.2986 65.7291 45.5 65.1938 45.5H45.3709ZM55.2824 36.5218L45.3709 29.9609V43.4686H65.1938V29.9609L55.2824 36.5218ZM55.2824 34.4907L65.1147 28.0314H45.4699L55.2824 34.4907ZM45.3709 29.9609V28.0314V43.4686V29.9609Z" fill="#434343" fill-opacity="0.29"/>
<rect x="21" y="75" width="139" height="45" rx="5" fill="#F5AB40"/>
<path d="M56.0043 103.5H54.0843V92.535H58.2693C59.5093 92.535 60.4743 92.835 61.1643 93.435C61.8643 94.035 62.2143 94.875 62.2143 95.955C62.2143 96.685 62.0443 97.31 61.7043 97.83C61.3743 98.34 60.8843 98.73 60.2343 99L62.3193 103.5H60.2193L58.3593 99.405H56.0043V103.5ZM56.0043 94.245V97.71H58.2693C58.8793 97.71 59.3543 97.555 59.6943 97.245C60.0343 96.935 60.2043 96.505 60.2043 95.955C60.2043 95.405 60.0343 94.985 59.6943 94.695C59.3543 94.395 58.8793 94.245 58.2693 94.245H56.0043ZM63.5782 95.595C63.5782 94.955 63.7432 94.39 64.0732 93.9C64.4032 93.41 64.8582 93.03 65.4382 92.76C66.0282 92.48 66.7082 92.34 67.4782 92.34C68.2182 92.34 68.8582 92.47 69.3982 92.73C69.9482 92.99 70.3732 93.36 70.6732 93.84C70.9832 94.32 71.1482 94.89 71.1682 95.55H69.2482C69.2282 95.08 69.0582 94.715 68.7382 94.455C68.4182 94.185 67.9882 94.05 67.4482 94.05C66.8582 94.05 66.3832 94.185 66.0232 94.455C65.6732 94.715 65.4982 95.075 65.4982 95.535C65.4982 95.925 65.6032 96.235 65.8132 96.465C66.0332 96.685 66.3732 96.85 66.8332 96.96L68.5582 97.35C69.4982 97.55 70.1982 97.895 70.6582 98.385C71.1182 98.865 71.3482 99.515 71.3482 100.335C71.3482 101.005 71.1832 101.595 70.8532 102.105C70.5232 102.615 70.0532 103.01 69.4432 103.29C68.8432 103.56 68.1382 103.695 67.3282 103.695C66.5582 103.695 65.8832 103.565 65.3032 103.305C64.7232 103.035 64.2682 102.66 63.9382 102.18C63.6182 101.7 63.4482 101.135 63.4282 100.485H65.3482C65.3582 100.945 65.5382 101.31 65.8882 101.58C66.2482 101.84 66.7332 101.97 67.3432 101.97C67.9832 101.97 68.4882 101.84 68.8582 101.58C69.2382 101.31 69.4282 100.955 69.4282 100.515C69.4282 100.135 69.3282 99.835 69.1282 99.615C68.9282 99.385 68.6032 99.225 68.1532 99.135L66.4132 98.745C65.4832 98.545 64.7782 98.185 64.2982 97.665C63.8182 97.135 63.5782 96.445 63.5782 95.595ZM76.0154 103.5L71.8754 92.535H73.9154L76.3154 98.85C76.4354 99.17 76.5504 99.505 76.6604 99.855C76.7704 100.205 76.8854 100.6 77.0054 101.04C77.1354 100.56 77.2604 100.145 77.3804 99.795C77.5004 99.445 77.6104 99.13 77.7104 98.85L80.0804 92.535H82.0754L77.9954 103.5H76.0154ZM85.4383 92.535V103.5H83.5183V92.535H85.4383ZM87.8533 99.72H84.9733V98.01H87.4483C88.1083 98.01 88.6083 97.845 88.9483 97.515C89.2983 97.175 89.4733 96.705 89.4733 96.105C89.4733 95.505 89.2983 95.045 88.9483 94.725C88.6083 94.405 88.1183 94.245 87.4783 94.245H84.7933V92.535H87.8533C88.5933 92.535 89.2333 92.685 89.7733 92.985C90.3133 93.285 90.7333 93.705 91.0333 94.245C91.3333 94.775 91.4833 95.4 91.4833 96.12C91.4833 96.82 91.3333 97.445 91.0333 97.995C90.7333 98.535 90.3133 98.96 89.7733 99.27C89.2333 99.57 88.5933 99.72 87.8533 99.72ZM99.1814 103.5H97.2914V92.535H99.1964L104.896 101.16H104.341V92.535H106.231V103.5H104.341L98.6264 94.89H99.1814V103.5ZM108.029 99.78C108.029 99.01 108.199 98.335 108.539 97.755C108.879 97.165 109.349 96.705 109.949 96.375C110.549 96.045 111.229 95.88 111.989 95.88C112.759 95.88 113.439 96.045 114.029 96.375C114.629 96.705 115.099 97.165 115.439 97.755C115.779 98.335 115.949 99.01 115.949 99.78C115.949 100.55 115.779 101.23 115.439 101.82C115.099 102.4 114.629 102.855 114.029 103.185C113.439 103.515 112.759 103.68 111.989 103.68C111.229 103.68 110.549 103.515 109.949 103.185C109.349 102.855 108.879 102.4 108.539 101.82C108.199 101.23 108.029 100.55 108.029 99.78ZM109.859 99.78C109.859 100.23 109.949 100.625 110.129 100.965C110.319 101.305 110.569 101.57 110.879 101.76C111.199 101.95 111.569 102.045 111.989 102.045C112.409 102.045 112.779 101.95 113.099 101.76C113.419 101.57 113.669 101.305 113.849 100.965C114.029 100.625 114.119 100.23 114.119 99.78C114.119 99.32 114.029 98.925 113.849 98.595C113.669 98.255 113.419 97.99 113.099 97.8C112.779 97.61 112.409 97.515 111.989 97.515C111.569 97.515 111.199 97.61 110.879 97.8C110.569 97.99 110.319 98.255 110.129 98.595C109.949 98.925 109.859 99.32 109.859 99.78ZM118.758 103.5L116.358 96.09H118.263L119.238 99.27C119.318 99.56 119.398 99.865 119.478 100.185C119.558 100.505 119.628 100.84 119.688 101.19C119.738 100.95 119.783 100.73 119.823 100.53C119.873 100.33 119.928 100.135 119.988 99.945C120.048 99.745 120.118 99.52 120.198 99.27L121.218 96.09H123.078L124.068 99.27C124.088 99.34 124.118 99.46 124.158 99.63C124.208 99.79 124.258 99.965 124.308 100.155C124.358 100.345 124.403 100.535 124.443 100.725C124.493 100.905 124.528 101.06 124.548 101.19C124.588 101 124.638 100.785 124.698 100.545C124.758 100.305 124.818 100.075 124.878 99.855C124.948 99.625 125.003 99.43 125.043 99.27L126.033 96.09H127.968L125.403 103.5H123.693L122.673 100.29C122.523 99.8 122.403 99.385 122.313 99.045C122.223 98.695 122.163 98.425 122.133 98.235C122.103 98.415 122.048 98.655 121.968 98.955C121.888 99.255 121.753 99.71 121.563 100.32L120.543 103.5H118.758Z" fill="white"/>
</svg>
