<svg width="48" height="48" viewBox="0 0 48 48" fill="none" xmlns="http://www.w3.org/2000/svg">
<path d="M6.6001 25.5V37V11V25.5ZM27.5251 43C28.2084 43 28.7918 42.75 29.2751 42.25C29.7584 41.75 30.0001 41.1583 30.0001 40.475C30.0001 39.7917 29.7606 39.2083 29.2816 38.725C28.8023 38.2417 28.2084 38 27.5001 38C26.8334 38 26.2501 38.2395 25.7501 38.7185C25.2501 39.1978 25.0001 39.7917 25.0001 40.5C25.0001 41.1667 25.2501 41.75 25.7501 42.25C26.2501 42.75 26.8418 43 27.5251 43ZM40.5251 22C41.2084 22 41.7918 21.75 42.2751 21.25C42.7584 20.75 43.0001 20.1583 43.0001 19.475C43.0001 18.7917 42.7606 18.2083 42.2816 17.725C41.8023 17.2417 41.2084 17 40.5001 17C39.8334 17 39.2501 17.2395 38.7501 17.7185C38.2501 18.1978 38.0001 18.7917 38.0001 19.5C38.0001 20.1667 38.2501 20.75 38.7501 21.25C39.2501 21.75 39.8418 22 40.5251 22ZM12.0001 21H22.0001V18H12.0001V21ZM12.0001 30H22.0001V27H12.0001V30ZM6.6001 40C5.8001 40 5.1001 39.7 4.5001 39.1C3.9001 38.5 3.6001 37.8 3.6001 37V11C3.6001 10.2 3.9001 9.5 4.5001 8.9C5.1001 8.3 5.8001 8 6.6001 8H41.4001C42.2001 8 42.9001 8.3 43.5001 8.9C44.1001 9.5 44.4001 10.2 44.4001 11H6.6001V37H19.0001V40H6.6001ZM27.4941 46C25.9648 46 24.6668 45.4653 23.6001 44.396C22.5334 43.3263 22.0001 42.0277 22.0001 40.5C22.0001 39.2333 22.3751 38.1167 23.1251 37.15C23.8751 36.1833 24.8334 35.5333 26.0001 35.2V28.5H39.0001V24.8C37.8334 24.4667 36.8751 23.8167 36.1251 22.85C35.3751 21.8833 35.0001 20.7667 35.0001 19.5C35.0001 17.9723 35.5354 16.6737 36.6061 15.604C37.6768 14.5347 38.9768 14 40.5061 14C42.0354 14 43.3334 14.5347 44.4001 15.604C45.4668 16.6737 46.0001 17.9723 46.0001 19.5C46.0001 20.7667 45.6251 21.8833 44.8751 22.85C44.1251 23.8167 43.1668 24.4667 42.0001 24.8V31.5H29.0001V35.2C30.1668 35.5333 31.1251 36.1833 31.8751 37.15C32.6251 38.1167 33.0001 39.2333 33.0001 40.5C33.0001 42.0277 32.4648 43.3263 31.3941 44.396C30.3234 45.4653 29.0234 46 27.4941 46Z" fill="#1D4DF4"/>
</svg>
